<?xml version="1.0" standalone="no"?>
<!DOCTYPE svg PUBLIC "-//W3C//DTD SVG 20010904//EN" "http://www.w3.org/TR/2001/REC-SVG-20010904/DTD/svg10.dtd">
<svg xmlns="http://www.w3.org/2000/svg" version="1.0" width="1024.000000pt" height="1024.000000pt" viewBox="0 0 1024.000000 1024.000000" preserveAspectRatio="xMidYMid meet">
<metadata>
Created by potrace 1.16, written by Peter Selinger 2001-2019
<meta name="Producer" content="Online-Convert"/></metadata>
<g transform="translate(0.000000,1024.000000) scale(0.100000,-0.100000)" fill="#000000" stroke="none">
<path d="M5051 9068 c-59 -10 -69 -16 -456 -292 -187 -134 -531 -377 -765 -541 -234 -164 -540 -380 -680 -478 -140 -99 -334 -235 -431 -303 -185 -129 -233 -173 -244 -223 -7 -34 15 -85 44 -101 12 -6 95 -10 198 -10 l178 0 0 -1458 0 -1457 28 -57 c36 -74 128 -159 204 -190 l58 -23 1905 0 c1780 0 1909 2 1969 18 126 34 194 86 249 190 l27 52 5 1465 5 1465 180 5 c118 3 188 9 202 18 12 7 28 30 34 51 21 70 -4 101 -171 215 -183 124 -481 331 -720 501 -102 72 -297 209 -435 305 -137 96 -338 237 -445 314 -321 230 -702 488 -755 512 -58 26 -122 34 -184 22z m1451 -2026 c10 -10 14 -66 16 -213 l3 -200 148 7 c165 8 216 2 231 -25 5 -11 13 -82 16 -159 l7 -140 -24 -13 c-16 -9 -82 -14 -201 -17 l-178 -4 0 -195 c0 -115 -4 -202 -10 -214 -10 -17 -23 -19 -158 -19 -112 0 -153 3 -168 14 -17 13 -19 31 -24 213 l-5 198 -188 0 c-177 0 -190 1 -204 20 -13 17 -14 45 -9 169 3 82 9 153 14 158 5 5 94 12 198 16 l189 7 3 194 c2 129 6 199 14 208 16 19 310 15 330 -5z m-2337 -125 c77 -25 164 -50 193 -56 115 -24 225 -9 437 59 72 23 159 44 195 47 184 16 375 -105 465 -291 96 -201 85 -386 -46 -737 -70 -189 -95 -283 -109 -414 -26 -246 -33 -297 -56 -407 -54 -256 -155 -488 -259 -593 -60 -62 -94 -78 -133 -64 -41 15 -53 61 -63 238 -14 253 -39 393 -94 528 -63 157 -124 213 -230 213 l-59 0 -61 -62 c-123 -128 -183 -324 -205 -663 -9 -142 -14 -177 -33 -215 -12 -25 -30 -47 -40 -48 -105 -20 -253 192 -347 496 -41 135 -65 266 -90 482 -25 227 -41 296 -113 476 -84 209 -101 288 -100 464 0 128 3 154 26 225 62 187 201 320 380 360 98 23 183 13 342 -38z"/>
<path d="M2208 3220 c-252 -46 -472 -237 -552 -478 -35 -105 -51 -257 -37 -365 21 -176 82 -300 210 -428 72 -72 102 -94 181 -132 126 -62 226 -81 374 -74 171 8 323 65 431 161 l50 45 -20 35 c-42 73 -138 196 -155 196 -9 0 -25 -8 -34 -19 -23 -25 -117 -66 -197 -87 -192 -49 -395 48 -485 231 -32 68 -44 201 -24 286 29 124 109 226 218 277 51 24 68 27 172 27 127 0 161 -10 289 -87 34 -21 67 -38 72 -38 15 0 149 212 149 235 0 45 -203 166 -335 200 -73 19 -242 27 -307 15z"/>
<path d="M3152 3208 c-17 -17 -17 -1419 0 -1436 15 -15 790 -17 853 -2 22 5 45 17 52 26 15 21 18 216 3 243 -8 17 -32 18 -291 20 -189 1 -287 5 -296 12 -10 9 -13 118 -13 570 0 542 -1 559 -19 569 -28 15 -274 13 -289 -2z"/>
<path d="M4380 3212 l-35 -7 0 -720 0 -720 146 0 c109 0 150 3 162 14 16 12 17 75 17 711 0 624 -2 699 -16 711 -17 14 -214 22 -274 11z"/>
<path d="M5021 3206 c-8 -9 -10 -208 -9 -727 l3 -714 155 0 155 0 -1 453 c0 248 1 452 2 452 4 0 535 -708 597 -796 35 -50 68 -86 85 -93 40 -17 240 -18 270 -3 l22 13 -2 707 -3 707 -95 8 c-52 4 -124 5 -158 1 l-64 -6 4 -434 c1 -239 0 -434 -4 -434 -3 0 -22 21 -41 48 -33 44 -556 727 -612 800 l-26 32 -133 0 c-100 0 -136 -3 -145 -14z"/>
<path d="M6690 3208 l-25 -14 -5 -704 c-3 -388 -3 -711 -1 -719 3 -10 34 -12 152 -9 81 1 152 8 157 13 15 16 22 1401 7 1422 -16 22 -247 31 -285 11z"/>
<path d="M7360 3212 l-24 -8 -2 -704 c0 -423 3 -712 9 -724 8 -17 20 -18 151 -14 78 2 147 7 154 12 9 5 12 63 12 220 l0 212 51 57 c28 31 56 57 63 57 13 0 45 -42 263 -340 67 -91 132 -177 146 -192 l26 -28 166 0 c166 0 235 12 235 40 0 6 -40 57 -88 113 -90 103 -171 209 -322 417 -45 63 -105 141 -132 173 -27 31 -48 64 -46 71 2 8 53 70 115 138 169 187 403 471 403 491 0 16 -16 17 -196 17 l-196 0 -31 -32 c-16 -18 -122 -148 -234 -288 -112 -140 -208 -256 -213 -258 -5 -2 -10 117 -12 272 -2 190 -7 279 -15 287 -13 13 -245 22 -283 11z"/>
</g>
</svg>
